<?xml version="1.0" encoding="utf-8"?>
<!-- Generator: Adobe Illustrator 24.1.0, SVG Export Plug-In . SVG Version: 6.00 Build 0)  -->
<svg version="1.1" id="Layer_1" xmlns="http://www.w3.org/2000/svg" xmlns:xlink="http://www.w3.org/1999/xlink" x="0px" y="0px"
	 viewBox="0 0 288 288" style="enable-background:new 0 0 288 288;" xml:space="preserve">
<style type="text/css">
	.st0{display:none;fill:none;stroke:#58595B;stroke-miterlimit:10;}
	.st1{fill:#FFFFFF;}
	.st2{fill:#8DC63F;}
	.st3{fill:#ED1C24;}
	.st4{fill:none;stroke:#FFFFFF;stroke-width:2.9087;stroke-miterlimit:10;}
	.st5{fill:#8DC63F;stroke:#ED1C24;stroke-width:5.7246;stroke-miterlimit:10;}
	.st6{fill:none;stroke:#231F20;stroke-width:6;stroke-miterlimit:10;}
	.st7{fill:none;stroke:#231F20;stroke-width:3.7298;stroke-miterlimit:10;}
	.st8{fill:none;stroke:#ED1C24;stroke-width:5;stroke-miterlimit:10;}
	.st9{fill:none;stroke:#ED1C24;stroke-width:3.7298;stroke-miterlimit:10;}
	.st10{fill:none;stroke:#8DC63F;stroke-width:4;stroke-miterlimit:10;}
	.st11{fill:#8DC63F;stroke:#ED1C24;stroke-width:1.9936;stroke-miterlimit:10;}
	.st12{fill:#ED1C24;stroke:#8DC63F;stroke-width:5.7246;stroke-miterlimit:10;}
	.st13{fill:none;stroke:#8DC63F;stroke-width:5;stroke-miterlimit:10;}
	.st14{fill:none;stroke:#8DC63F;stroke-width:2;stroke-miterlimit:10;}
	.st15{fill:none;stroke:#ED1C24;stroke-width:4;stroke-miterlimit:10;}
</style>
<circle class="st0" cx="568.1" cy="151" r="96.3"/>
<g>
	<circle class="st1" cx="1403.6" cy="-284.9" r="14.8"/>
	<g>
		<g>
			<path class="st1" d="M1427.9-264.7c-7.8-2-15.9-3.1-24.3-3.1s-16.5,1.1-24.3,3.1l0.1,15.2l48.5,0.6L1427.9-264.7L1427.9-264.7z"
				/>
		</g>
	</g>
</g>
<rect x="0.5" y="-0.1" class="st2" width="288" height="288"/>
<rect x="0.2" y="0" class="st3" width="143.8" height="288"/>
<path class="st4" d="M72.2,65.2"/>
<path class="st4" d="M100.1,57"/>
<rect x="217.5" y="64.8" class="st5" width="36.5" height="75.7"/>
<path class="st6" d="M208,167.6"/>
<path class="st6" d="M188.8,157.7"/>
<path class="st7" d="M216.9,171.4"/>
<path class="st7" d="M216.9,157.7"/>
<line class="st8" x1="199.2" y1="111.6" x2="99.2" y2="111.6"/>
<polyline class="st9" points="189.5,101.9 199.2,111.6 189.5,121.2 "/>
<g>
	<line class="st10" x1="71" y1="153" x2="99.1" y2="181.1"/>
	<polyline class="st10" points="84.6,153 71,153 71,166.7 	"/>
	<polyline class="st10" points="86.6,182.2 100.2,182.2 100.2,168.6 	"/>
</g>
<path class="st11" d="M144,176.8h26c4.2,0,7.7,3.5,7.7,7.7v35.7c0,4.3-3.4,7.7-7.7,7.7h-26.1"/>
<g>
	<path class="st2" d="M117.6,180.6c-2.3,0-4.2,1.9-4.2,4.2v35.4c0,2.3,1.9,4.2,4.2,4.2h26.4v-43.7L117.6,180.6L117.6,180.6z"/>
	<path class="st1" d="M174.5,220.1v-35.4c0-2.3-1.9-4.2-4.2-4.2h-26.4v43.7h26.4C172.6,224.3,174.5,222.4,174.5,220.1z"/>
	<path class="st3" d="M174.5,220.1v-35.4c0-2.3-1.9-4.2-4.2-4.2h-26.4v43.7h26.4C172.6,224.3,174.5,222.4,174.5,220.1z"/>
</g>
<rect x="104.1" y="237.8" class="st3" width="79.8" height="28.2"/>
<polygon class="st2" points="185.8,242.6 185.8,268.3 108.5,268.3 110.8,270.9 188.3,270.9 188.3,245.1 "/>
<polyline class="st2" points="144,266 104.1,266 104.1,237.8 143.9,237.8 "/>
<path class="st3" d="M110.5,245.1H109c-0.6,0-1.1-0.5-1.1-1.1v-1.8c0-0.6,0.5-1.1,1.1-1.1h1.5c0.6,0,1.1,0.5,1.1,1.1v1.8
	C111.6,244.6,111.1,245.1,110.5,245.1z"/>
<path class="st3" d="M115.5,245.1H114c-0.6,0-1.1-0.5-1.1-1.1v-1.8c0-0.6,0.5-1.1,1.1-1.1h1.5c0.6,0,1.1,0.5,1.1,1.1v1.8
	C116.6,244.6,116.1,245.1,115.5,245.1z"/>
<g>
	<path class="st3" d="M120.8,245.1h-1.5c-0.6,0-1.1-0.5-1.1-1.1v-1.8c0-0.6,0.5-1.1,1.1-1.1h1.5c0.6,0,1.1,0.5,1.1,1.1v1.8
		C121.9,244.6,121.4,245.1,120.8,245.1z"/>
	<path class="st3" d="M126.2,245.1h-1.5c-0.6,0-1.1-0.5-1.1-1.1v-1.8c0-0.6,0.5-1.1,1.1-1.1h1.5c0.6,0,1.1,0.5,1.1,1.1v1.8
		C127.3,244.6,126.8,245.1,126.2,245.1z"/>
	<path class="st3" d="M131.5,245.1H130c-0.6,0-1.1-0.5-1.1-1.1v-1.8c0-0.6,0.5-1.1,1.1-1.1h1.5c0.6,0,1.1,0.5,1.1,1.1v1.8
		C132.6,244.6,132.1,245.1,131.5,245.1z"/>
	<path class="st3" d="M136.8,245.1h-1.5c-0.6,0-1.1-0.5-1.1-1.1v-1.8c0-0.6,0.5-1.1,1.1-1.1h1.5c0.6,0,1.1,0.5,1.1,1.1v1.8
		C137.9,244.6,137.4,245.1,136.8,245.1z"/>
	<path class="st3" d="M142.1,245.1h-1.5c-0.6,0-1.1-0.5-1.1-1.1v-1.8c0-0.6,0.5-1.1,1.1-1.1h1.5c0.6,0,1.1,0.5,1.1,1.1v1.8
		C143.2,244.6,142.7,245.1,142.1,245.1z"/>
</g>
<g>
	<path class="st3" d="M120.8,256.8h-1.5c-0.6,0-1.1-0.5-1.1-1.1v-1.8c0-0.6,0.5-1.1,1.1-1.1h1.5c0.6,0,1.1,0.5,1.1,1.1v1.8
		C121.9,256.2,121.4,256.8,120.8,256.8z"/>
	<path class="st3" d="M126.2,256.8h-1.5c-0.6,0-1.1-0.5-1.1-1.1v-1.8c0-0.6,0.5-1.1,1.1-1.1h1.5c0.6,0,1.1,0.5,1.1,1.1v1.8
		C127.3,256.2,126.8,256.8,126.2,256.8z"/>
	<path class="st3" d="M131.5,256.8H130c-0.6,0-1.1-0.5-1.1-1.1v-1.8c0-0.6,0.5-1.1,1.1-1.1h1.5c0.6,0,1.1,0.5,1.1,1.1v1.8
		C132.6,256.2,132.1,256.8,131.5,256.8z"/>
	<path class="st3" d="M136.8,256.8h-1.5c-0.6,0-1.1-0.5-1.1-1.1v-1.8c0-0.6,0.5-1.1,1.1-1.1h1.5c0.6,0,1.1,0.5,1.1,1.1v1.8
		C137.9,256.2,137.4,256.8,136.8,256.8z"/>
	<path class="st3" d="M142.1,256.8h-1.5c-0.6,0-1.1-0.5-1.1-1.1v-1.8c0-0.6,0.5-1.1,1.1-1.1h1.5c0.6,0,1.1,0.5,1.1,1.1v1.8
		C143.2,256.2,142.7,256.8,142.1,256.8z"/>
</g>
<g>
	<path class="st2" d="M147.4,245.1h-1.5c-0.6,0-1.1-0.5-1.1-1.1v-1.8c0-0.6,0.5-1.1,1.2-1.1h1.5c0.5,0,1,0.5,1,1.1v1.8
		C148.5,244.6,148,245.1,147.4,245.1z"/>
	<path class="st2" d="M152.7,245.1h-1.5c-0.6,0-1.1-0.5-1.1-1.1v-1.8c0-0.6,0.5-1.1,1.1-1.1h1.5c0.6,0,1.1,0.5,1.1,1.1v1.8
		C153.9,244.6,153.4,245.1,152.7,245.1z"/>
	<path class="st2" d="M158.1,245.1h-1.5c-0.6,0-1.1-0.5-1.1-1.1v-1.8c0-0.6,0.5-1.1,1.1-1.1h1.5c0.6,0,1.1,0.5,1.1,1.1v1.8
		C159.2,244.6,158.7,245.1,158.1,245.1z"/>
	<path class="st2" d="M163.4,245.1h-1.5c-0.6,0-1.1-0.5-1.1-1.1v-1.8c0-0.6,0.5-1.1,1.1-1.1h1.5c0.6,0,1.1,0.5,1.1,1.1v1.8
		C164.5,244.6,164,245.1,163.4,245.1z"/>
	<path class="st2" d="M168.7,245.1h-1.5c-0.6,0-1.1-0.5-1.1-1.1v-1.8c0-0.6,0.5-1.1,1.1-1.1h1.5c0.6,0,1.1,0.5,1.1,1.1v1.8
		C169.8,244.6,169.3,245.1,168.7,245.1z"/>
</g>
<g>
	<path class="st2" d="M147.4,256.8h-1.5c-0.6,0-1.1-0.5-1.1-1.1v-1.8c0-0.6,0.5-1.1,1.1-1.1h1.5c0.6,0,1.1,0.5,1.1,1.1v1.8
		C148.5,256.2,148,256.8,147.4,256.8z"/>
	<path class="st2" d="M152.7,256.8h-1.5c-0.6,0-1.1-0.5-1.1-1.1v-1.8c0-0.6,0.5-1.1,1.1-1.1h1.5c0.6,0,1.1,0.5,1.1,1.1v1.8
		C153.9,256.2,153.4,256.8,152.7,256.8z"/>
	<path class="st2" d="M158.1,256.8h-1.5c-0.6,0-1.1-0.5-1.1-1.1v-1.8c0-0.6,0.5-1.1,1.1-1.1h1.5c0.6,0,1.1,0.5,1.1,1.1v1.8
		C159.2,256.2,158.7,256.8,158.1,256.8z"/>
	<path class="st2" d="M163.4,256.8h-1.5c-0.6,0-1.1-0.5-1.1-1.1v-1.8c0-0.6,0.5-1.1,1.1-1.1h1.5c0.6,0,1.1,0.5,1.1,1.1v1.8
		C164.5,256.2,164,256.8,163.4,256.8z"/>
	<path class="st2" d="M168.7,256.8h-1.5c-0.6,0-1.1-0.5-1.1-1.1v-1.8c0-0.6,0.5-1.1,1.1-1.1h1.5c0.6,0,1.1,0.5,1.1,1.1v1.8
		C169.8,256.2,169.3,256.8,168.7,256.8z"/>
</g>
<path class="st2" d="M174,245.1h-1.5c-0.6,0-1.1-0.5-1.1-1.1v-1.8c0-0.6,0.5-1.1,1.1-1.1h1.5c0.6,0,1.1,0.5,1.1,1.1v1.8
	C175.1,244.6,174.6,245.1,174,245.1z"/>
<path class="st2" d="M179.4,245.1h-1.5c-0.6,0-1.1-0.5-1.1-1.1v-1.8c0-0.6,0.5-1.1,1.1-1.1h1.5c0.6,0,1.1,0.5,1.1,1.1v1.8
	C180.5,244.6,180,245.1,179.4,245.1z"/>
<path class="st3" d="M112.5,251H109c-0.6,0-1.1-0.5-1.1-1.1v-1.8c0-0.6,0.5-1.1,1.1-1.1h3.5c0.6,0,1.1,0.5,1.1,1.1v1.8
	C113.7,250.5,113.2,251,112.5,251z"/>
<g>
	<path class="st3" d="M123.3,251h-1.5c-0.6,0-1.1-0.5-1.1-1.1v-1.8c0-0.6,0.5-1.1,1.1-1.1h1.5c0.6,0,1.1,0.5,1.1,1.1v1.8
		C124.5,250.5,124,251,123.3,251z"/>
	<path class="st3" d="M118,251h-1.5c-0.6,0-1.1-0.5-1.1-1.1v-1.8c0-0.6,0.5-1.1,1.1-1.1h1.5c0.6,0,1.1,0.5,1.1,1.1v1.8
		C119.1,250.5,118.6,251,118,251z"/>
	<path class="st3" d="M128.7,251h-1.5c-0.6,0-1.1-0.5-1.1-1.1v-1.8c0-0.6,0.5-1.1,1.1-1.1h1.5c0.6,0,1.1,0.5,1.1,1.1v1.8
		C129.8,250.5,129.3,251,128.7,251z"/>
	<path class="st3" d="M134,251h-1.5c-0.6,0-1.1-0.5-1.1-1.1v-1.8c0-0.6,0.5-1.1,1.1-1.1h1.5c0.6,0,1.1,0.5,1.1,1.1v1.8
		C135.2,250.5,134.7,251,134,251z"/>
	<path class="st3" d="M139.4,251h-1.5c-0.6,0-1.1-0.5-1.1-1.1v-1.8c0-0.6,0.5-1.1,1.1-1.1h1.5c0.6,0,1.1,0.5,1.1,1.1v1.8
		C140.5,250.5,140,251,139.4,251z"/>
</g>
<path class="st3" d="M144.7,251h-1.5c-0.6,0-1.1-0.5-1.1-1.1v-1.8c0-0.6,0.5-1.1,1.1-1.1h1.5c0.6,0,1.1,0.5,1.1,1.1v1.8
	C145.9,250.5,145.4,251,144.7,251z"/>
<g>
	<path class="st2" d="M150.1,251h-1.5c-0.6,0-1.1-0.5-1.1-1.1v-1.8c0-0.6,0.5-1.1,1.1-1.1h1.5c0.6,0,1.1,0.5,1.1,1.1v1.8
		C151.2,250.5,150.7,251,150.1,251z"/>
	<path class="st2" d="M155.4,251h-1.5c-0.6,0-1.1-0.5-1.1-1.1v-1.8c0-0.6,0.5-1.1,1.1-1.1h1.5c0.6,0,1.1,0.5,1.1,1.1v1.8
		C156.6,250.5,156.1,251,155.4,251z"/>
	<path class="st2" d="M160.8,251h-1.5c-0.6,0-1.1-0.5-1.1-1.1v-1.8c0-0.6,0.5-1.1,1.1-1.1h1.5c0.6,0,1.1,0.5,1.1,1.1v1.8
		C161.9,250.5,161.4,251,160.8,251z"/>
	<path class="st2" d="M166.1,251h-1.5c-0.6,0-1.1-0.5-1.1-1.1v-1.8c0-0.6,0.5-1.1,1.1-1.1h1.5c0.6,0,1.1,0.5,1.1,1.1v1.8
		C167.2,250.5,166.7,251,166.1,251z"/>
	<path class="st2" d="M171.5,251H170c-0.6,0-1.1-0.5-1.1-1.1v-1.8c0-0.6,0.5-1.1,1.1-1.1h1.5c0.6,0,1.1,0.5,1.1,1.1v1.8
		C172.6,250.5,172.1,251,171.5,251z"/>
</g>
<path class="st2" d="M179.4,251h-4.1c-0.6,0-1.1-0.5-1.1-1.1v-1.8c0-0.6,0.5-1.1,1.1-1.1h4.1c0.6,0,1.1,0.5,1.1,1.1v1.8
	C180.5,250.5,180,251,179.4,251z"/>
<path class="st3" d="M115.5,256.7H109c-0.6,0-1.1-0.5-1.1-1.1v-1.8c0-0.6,0.5-1.1,1.1-1.1h6.5c0.6,0,1.1,0.5,1.1,1.1v1.8
	C116.6,256.2,116.1,256.7,115.5,256.7z"/>
<path class="st2" d="M179.4,256.7h-6.8c-0.6,0-1.1-0.5-1.1-1.1v-1.8c0-0.6,0.5-1.1,1.1-1.1h6.8c0.6,0,1.1,0.5,1.1,1.1v1.8
	C180.5,256.2,180,256.7,179.4,256.7z"/>
<path class="st3" d="M128.6,262.5h-1.5c-0.6,0-1.1-0.5-1.1-1.1v-1.8c0-0.6,0.5-1.1,1.1-1.1h1.5c0.6,0,1.1,0.5,1.1,1.1v1.8
	C129.7,262,129.2,262.5,128.6,262.5z"/>
<path class="st3" d="M112.5,262.5H111c-0.6,0-1.1-0.5-1.1-1.1v-1.8c0-0.6,0.5-1.1,1.1-1.1h1.5c0.6,0,1.1,0.5,1.1,1.1v1.8
	C113.7,262,113.2,262.5,112.5,262.5z"/>
<path class="st3" d="M117.9,262.5h-1.5c-0.6,0-1.1-0.5-1.1-1.1v-1.8c0-0.6,0.5-1.1,1.1-1.1h1.5c0.6,0,1.1,0.5,1.1,1.1v1.8
	C119,262,118.5,262.5,117.9,262.5z"/>
<g>
	<g>
		<g>
			<path class="st3" d="M132.4,258.5c-0.6,0-1.1,0.5-1.1,1.1v1.8c0,0.6,0.5,1.1,1.1,1.1h11.5v-4L132.4,258.5L132.4,258.5z"/>
		</g>
		<path class="st2" d="M156.5,261.4v-1.8c0-0.6-0.5-1.1-1.1-1.1h-11.5v4h11.5C156,262.5,156.5,262,156.5,261.4z"/>
	</g>
</g>
<path class="st3" d="M123.2,262.5h-1.5c-0.6,0-1.1-0.5-1.1-1.1v-1.8c0-0.6,0.5-1.1,1.1-1.1h1.5c0.6,0,1.1,0.5,1.1,1.1v1.8
	C124.3,262,123.8,262.5,123.2,262.5z"/>
<path class="st2" d="M160.6,262.5h-1.5c-0.6,0-1.1-0.5-1.1-1.1v-1.8c0-0.6,0.5-1.1,1.1-1.1h1.5c0.6,0,1.1,0.5,1.1,1.1v1.8
	C161.8,262,161.3,262.5,160.6,262.5z"/>
<path class="st2" d="M166,262.5h-1.5c-0.6,0-1.1-0.5-1.1-1.1v-1.8c0-0.6,0.5-1.1,1.1-1.1h1.5c0.6,0,1.1,0.5,1.1,1.1v1.8
	C167.1,262,166.6,262.5,166,262.5z"/>
<path class="st2" d="M171.3,262.5h-1.5c-0.6,0-1.1-0.5-1.1-1.1v-1.8c0-0.6,0.5-1.1,1.1-1.1h1.5c0.6,0,1.1,0.5,1.1,1.1v1.8
	C172.5,262,172,262.5,171.3,262.5z"/>
<path class="st2" d="M176.7,262.5h-1.5c-0.6,0-1.1-0.5-1.1-1.1v-1.8c0-0.6,0.5-1.1,1.1-1.1h1.5c0.6,0,1.1,0.5,1.1,1.1v1.8
	C177.8,262,177.3,262.5,176.7,262.5z"/>
<g>
	<g>
		<path class="st2" d="M144.7,247H144v4h0.7c0.6,0,1.1-0.5,1.1-1.1v-1.8C145.9,247.5,145.4,247,144.7,247z"/>
	</g>
</g>
<rect x="34.1" y="64.8" class="st12" width="36.5" height="75.7"/>
<line class="st13" x1="144" y1="111.6" x2="89.6" y2="111.6"/>
<path class="st14" d="M143.9,176.8h-26.2c-4.3,0-7.7,3.5-7.7,7.7v35.7c0,4.3,3.5,7.7,7.7,7.7h26.2"/>
<polygon class="st3" points="185.8,242.6 185.8,268.3 143.9,268.3 143.9,270.9 188.3,270.9 188.3,245.1 "/>
<g>
	<g>
		<rect x="45.1" y="85.3" class="st2" width="14.6" height="7.3"/>
		<rect x="45.1" y="99.3" class="st2" width="14.6" height="7.3"/>
		<rect x="45.1" y="113.3" class="st2" width="14.6" height="7.3"/>
	</g>
</g>
<g>
	<g>
		<rect x="228.5" y="85.3" class="st3" width="14.6" height="7.3"/>
		<rect x="228.5" y="99.3" class="st3" width="14.6" height="7.3"/>
		<rect x="228.5" y="113.3" class="st3" width="14.6" height="7.3"/>
	</g>
</g>
<g>
	<line class="st15" x1="216.9" y1="153" x2="188.9" y2="181.1"/>
	<polyline class="st15" points="203.3,153 216.9,153 216.9,166.7 	"/>
	<polyline class="st15" points="201.4,182.2 187.7,182.2 187.7,168.6 	"/>
</g>
</svg>
