<?xml version="1.0" encoding="utf-8"?>
<!-- Generator: Adobe Illustrator 24.1.0, SVG Export Plug-In . SVG Version: 6.00 Build 0)  -->
<svg version="1.1" id="Layer_1" xmlns="http://www.w3.org/2000/svg" xmlns:xlink="http://www.w3.org/1999/xlink" x="0px" y="0px"
	 viewBox="0 0 288 288" style="enable-background:new 0 0 288 288;" xml:space="preserve">
<style type="text/css">
	.st0{fill:#FF6800;}
	.st1{fill:#FFFFFF;}
</style>
<rect x="0" class="st0" width="287.6" height="288.7"/>
<path class="st1" d="M250.3,289.1H37.7c-21.4,0-38.8-17.4-38.8-38.8V37.7c0-21.4,17.4-38.8,38.8-38.8h212.6
	c21.4,0,38.8,17.4,38.8,38.8v212.6C289.1,271.7,271.7,289.1,250.3,289.1z"/>
<g>
	<g>
		<path class="st0" d="M83.6,142.9H64.2v12.7c0,1.7-0.5,3-1.6,4c-1.1,1-2.4,1.5-4.1,1.5c-1.7,0-3-0.5-4-1.5c-1-1-1.5-2.4-1.5-4
			v-35.9c0-5.1,1.7-9.4,5.2-12.8c3.4-3.4,7.7-5.2,12.8-5.2c5,0,9.3,1.7,12.7,5.2c3.4,3.5,5.2,7.8,5.2,12.8v0.6c0,1.7-0.5,3-1.5,4.1
			c-1,1.1-2.4,1.6-4,1.6c-1.6,0-3-0.5-4-1.6c-1.1-1.1-1.6-2.4-1.6-4.1v-0.6c0-1.9-0.6-3.5-1.9-4.8c-1.3-1.3-2.9-2-4.7-2
			c-1.9,0-3.5,0.7-4.8,2c-1.3,1.3-2,2.9-2,4.8v12h19.4c1.7,0,3,0.5,4,1.6c1,1.1,1.5,2.4,1.5,4.1c0,1.7-0.5,3-1.5,4
			C86.6,142.4,85.3,142.9,83.6,142.9z"/>
		<path class="st0" d="M104,103.1c1.4,1.4,2,3,2,4.9c0,1.9-0.7,3.5-2,4.9c-1.4,1.4-3,2-4.9,2c-1.9,0-3.5-0.7-4.9-2
			c-1.4-1.4-2-3-2-4.9c0-1.9,0.7-3.5,2-4.9c1.4-1.4,3-2,4.9-2C101,101,102.6,101.7,104,103.1z M104.8,124.4c0-3.7-1.9-5.6-5.7-5.6
			c-1.7,0-3,0.5-4,1.5c-1,1-1.5,2.4-1.5,4v31.3c0,1.7,0.5,3,1.5,4c1,1,2.4,1.5,4,1.5c1.7,0,3-0.5,4.1-1.5c1.1-1,1.6-2.4,1.6-4V124.4
			z"/>
		<path class="st0" d="M152.4,179.5H152c-5.1,0-9.4-1.7-12.8-5.2c-3.4-3.4-5.2-7.7-5.2-12.8v-3.9v-20.9c0-1.8-0.7-3.4-2-4.7
			c-1.3-1.3-2.9-2-4.7-2c-1.9,0-3.5,0.6-4.8,1.9c-1.3,1.3-2,2.9-2,4.8v18.9c0,1.7-0.5,3-1.6,4c-1.1,1-2.4,1.5-4.1,1.5
			c-1.7,0-3-0.5-4-1.5c-1-1-1.5-2.4-1.5-4v-18.9c0-5.1,1.7-9.3,5.2-12.8c3.5-3.4,7.7-5.2,12.8-5.2c5,0,9.3,1.7,12.8,5.2
			c3.5,3.4,5.2,7.7,5.2,12.8v24.8c0,1.9,0.7,3.5,2,4.8c1.3,1.3,2.9,2,4.8,2h0.3c1.7,0,3,0.5,4.1,1.6c1.1,1.1,1.6,2.4,1.6,4.1
			c0,1.7-0.5,3-1.6,4C155.4,179,154,179.5,152.4,179.5z"/>
		<path class="st0" d="M171,130c-2.8,0-5.1,1-7.1,2.9c-1.9,2-2.9,4.3-2.9,7.1c0,2.8,1,5.1,2.9,7c1.9,1.9,4.3,2.9,7.1,2.9
			c2.8,0,5.1-1,7.1-2.9c2-1.9,3-4.3,3-7.1v-32.7c0-1.6,0.5-2.9,1.6-4c1.1-1.1,2.4-1.6,4-1.6c1.7,0,3,0.5,4.1,1.5
			c1.1,1,1.6,2.4,1.6,4V140c0,5.9-2.1,11-6.2,15.1c-4.1,4.1-9.2,6.2-15.1,6.2c-5.9,0-11-2-15.1-6.1c-4.1-4.1-6.2-9.1-6.2-15
			c0-6,2-11,6.1-15.1c4.1-4.1,9.1-6.1,15.1-6.1c1.7,0,3,0.5,4.1,1.6c1.1,1.1,1.6,2.4,1.6,4.1c0,1.7-0.5,3-1.6,4
			C174,129.5,172.7,130,171,130z"/>
		<path class="st0" d="M218,118.8c6,0,11,2,15.1,6.1c4.1,4.1,6.2,9.1,6.2,15.1c0,6-2.1,11.1-6.2,15.2c-4.1,4.1-9.2,6.2-15.1,6.2
			c-6,0-11-2.1-15.1-6.2c-4.1-4.1-6.1-9.2-6.1-15.2c0-6,2-11,6.1-15.1C207,120.8,212,118.8,218,118.8z M218,130
			c-2.8,0-5.1,1-7.1,2.9c-1.9,2-2.9,4.3-2.9,7.1s1,5.2,2.9,7.1c1.9,2,4.3,3,7.1,3c2.8,0,5.1-1,7.1-3c2-2,3-4.4,3-7.1s-1-5.2-3-7.1
			C223.2,131,220.8,130,218,130z"/>
	</g>
</g>
</svg>
