<?xml version="1.0" encoding="utf-8"?>
<!-- Generator: Adobe Illustrator 24.1.0, SVG Export Plug-In . SVG Version: 6.00 Build 0)  -->
<svg version="1.1" id="Layer_1" xmlns="http://www.w3.org/2000/svg" xmlns:xlink="http://www.w3.org/1999/xlink" x="0px" y="0px"
	 viewBox="0 0 288 288" style="enable-background:new 0 0 288 288;" xml:space="preserve">
<style type="text/css">
	.st0{fill:#F9EC31;}
	.st1{fill:#FFFFFF;stroke:#231F20;stroke-width:3.4276;stroke-miterlimit:10;}
</style>
<rect x="-1.26" y="0.23" class="st0" width="288.36" height="288.36"/>
<path d="M198.5,132.35l-8.47,6.2v-20.63L198.5,132.35 M198.25,112.53c0,0-5.71,3.46-9.55,5.75c-3.84,2.28-8.99,4.79-8.99,4.79v24
	l-3.43,2.76l0.46,0.53l3.35-2.7l10.5,9.49l18.24-14.46l-0.43-0.52l-10.08,7.91l-8.29-7.76v-2.89l16.65-12.25L198.25,112.53z"/>
<polyline points="112.59,122.57 113.04,123.09 116.48,120.13 121.58,125.91 121.58,145.74 119.1,148 127.05,156.99 135.2,148.95 
	131.85,145.48 131.85,121.49 133.88,119.87 139.52,126.45 139.52,146.23 137.4,148.35 144.88,156.77 152.89,148.76 149.95,145.67 
	149.87,121.59 152.03,119.83 157.91,126.3 157.91,145.97 155.98,147.91 164.24,156.92 175.34,146.67 174.87,146.17 172.18,148.65 
	168.04,144.07 168.04,121.61 172.03,118.58 171.62,118.03 167.62,121.07 160.07,112.6 149.28,121.13 141.72,112.9 131.29,121.07 
	123.66,112.95 112.59,122.57 "/>
<polyline points="90,121.96 90.45,122.48 93.35,119.97 97.9,125.34 97.9,148.02 94.69,150.81 95.14,151.34 98.5,148.47 
	105.83,156.92 116.41,147.47 115.96,146.95 112.85,149.69 108.47,144.64 108.47,122.48 112.16,119.28 111.72,118.76 108.21,121.78 
	100.5,112.8 90,121.96 "/>
<polyline points="93.05,103.18 101.02,95.88 107.5,103.07 99.5,110.34 93.05,103.18 "/>
<path d="M222,117.17v11.92l3.97,3.46c0,0,8.62-6.9,11.75-13.29c0,0-3.87,5.25-9.09,3.65C224.27,121.57,222,117.17,222,117.17
	 M212.38,148.77c0,0,3.77-6.24,10.26-4.9c6.22,1.29,8.38,7.86,8.38,7.86v-15.13l-4.34-3.77
	C221.91,137.62,213.43,144.55,212.38,148.77z M218.56,160.25c-1.21,0.35-6.46-0.92-7.73-6.36c-1.23-5.31,2.46-8.9,8.02-14.55
	l-6.57-6.01v-11.47c0,0,4.83-2.41,8.61-4.77c3.78-2.37,7.66-4.94,7.66-4.94s2.82,3.57,6.01,3.28c5-0.44,4.76-4.38,4.62-5.31
	c0.85,1.52,3.14,6.05-5.64,16.17l7.15,5.77v14.9c0,0-8.31,4.32-16.16,10.05c0,0-4.38-5.49-8.19-2.87
	C213.77,155.92,214.95,158.91,218.56,160.25z"/>
<polygon points="48.75,120.21 69.51,111.29 69.51,144.87 54.49,152.4 54.07,151.82 58.12,149.8 58.12,117.12 47.95,121.36 "/>
<path d="M59.62,108.99c0.08-0.44-12.61,2.13-19.35,11.54c-3.45,4.98-5.09,8.11-6.04,14.97c-0.25,2.3-0.91,14.55,8.25,23.17
	c11.5,11.5,24.95,8.35,29.26,7.14c0,0,3.91-1.42,6.79-3.27c2.2-1.42,5.59-4.46,7.68-8.3c4.92-8.55,3.14-14,3.49-13.24
	c0.19,0.41-3.03,6.24-8.32,10.35c-4.7,3.66-11.27,5.72-15.09,5.03c-3.9,0.19-9.85-2.24-14.25-6.59c-6.46-6.8-7.1-16.8-6.38-20.91
	c0.48-2.74,1.07-6.6,4-10.92C52.86,113.25,55.87,110.95,59.62,108.99z"/>
<path d="M76.86,92.12c0,0,3.8,0.44,5.19,1.47c1.04,0.86,1.49,1.68,1.55,2.46c0.05,0.96-0.16,2.25-1.19,2.83
	c-1.61,1.09-3.49,1.08-4.74,0.84c-1.25-0.24-8.52-2.03-17.3-4.85c-1.79-0.58-5.34-1.67-7.3-1.88s-3.96-0.26-5.48,0.16
	c-1.52,0.43-2.97,0.93-4.95,2.22c-1.86,1.33-4.03,4.38-4.46,6.76c-0.69,4.71,0.7,6.86,1.42,7.92c1.19,1.47,2.03,2.38,4.05,2.84
	c-2.05-1.91-1.92-4-1.17-5.66c0.5-1.26,1.78-2.15,2.38-2.46c0.92-0.48,2.28-0.58,3.41-0.34c1.13,0.24,25.22,6.72,26.21,6.91
	c2.3,0.39,7.38,1.56,11.71-2c2.75-2.07,3.29-4.25,3.59-5.6c0.23-1.2,0.83-2.83-0.16-5.86c-0.35-1.13-1.32-2.81-3.22-3.99
	c-1.87-1.16-3.08-1.65-4.72-1.9C78.46,91.45,76.86,92.12,76.86,92.12z"/>
<polygon points="79.29,106.47 79.29,121.96 73.42,126.72 79.29,131.48 79.29,155.41 79.97,154.85 79.97,131.48 85.88,126.72 
	79.96,121.94 79.96,106.44 "/>
<polygon class="st1" points="221.7,174.83 188.13,152.4 180.74,192.09 194.65,184.08 206.76,212.79 218.35,207.91 206.24,179.19 "/>
</svg>
