<?xml version="1.0" encoding="utf-8"?>
<!-- Generator: Adobe Illustrator 24.1.0, SVG Export Plug-In . SVG Version: 6.00 Build 0)  -->
<svg version="1.1" id="Layer_1" xmlns="http://www.w3.org/2000/svg" xmlns:xlink="http://www.w3.org/1999/xlink" x="0px" y="0px"
	 viewBox="0 0 288 288" style="enable-background:new 0 0 288 288;" xml:space="preserve">
<style type="text/css">
	.st0{fill:#001996;}
	.st1{fill:none;stroke:#00ADEE;stroke-width:0.5;stroke-miterlimit:10;}
	.st2{fill:#EC008C;stroke:#262262;stroke-width:2;stroke-miterlimit:10;}
	.st3{fill:none;stroke:#262262;stroke-width:2;stroke-miterlimit:10;}
	.st4{fill:#008ECC;stroke:#FFFFFF;stroke-width:0.5339;stroke-miterlimit:10;}
	.st5{fill:none;stroke:#FFFFFF;stroke-width:2.1927;stroke-miterlimit:10;}
	.st6{fill:#27AAE1;stroke:#FFFFFF;stroke-width:4;stroke-miterlimit:10;}
	.st7{fill:none;stroke:#FFFFFF;stroke-width:4;stroke-miterlimit:10;}
	.st8{fill:#00CDFC;stroke:#FFFFFF;stroke-width:0.7118;stroke-miterlimit:10;}
	.st9{fill:#27AAE1;stroke:#FFFFFF;stroke-width:1.0226;stroke-miterlimit:10;}
	.st10{fill:#27AAE1;stroke:#FFFFFF;stroke-width:1.2522;stroke-miterlimit:10;}
	.st11{fill:#27AAE1;stroke:#FFFFFF;stroke-width:1.2088;stroke-miterlimit:10;}
	.st12{fill:#27AAE1;stroke:#FFFFFF;stroke-width:1.888;stroke-miterlimit:10;}
	.st13{fill:#27AAE1;stroke:#FFFFFF;stroke-width:1.6681;stroke-miterlimit:10;}
	.st14{fill:#27AAE1;stroke:#FFFFFF;stroke-miterlimit:10;}
	.st15{fill:none;stroke:#FFFFFF;stroke-width:5.3048;stroke-miterlimit:10;}
	.st16{fill:#27AAE1;stroke:#FFFFFF;stroke-width:3.5952;stroke-miterlimit:10;}
	.st17{fill:#FFFFFF;}
	.st18{fill:none;}
	.st19{display:none;}
	.st20{display:inline;fill:#001996;stroke:#00CDFC;stroke-width:0.75;stroke-miterlimit:10;}
	.st21{fill:#001996;stroke:#FFFFFF;stroke-width:1.2093;stroke-miterlimit:10;}
	.st22{fill:#001668;stroke:#FFFFFF;stroke-width:1.2093;stroke-miterlimit:10;}
	.st23{fill:#2E3192;stroke:#FFFFFF;stroke-width:1.2093;stroke-miterlimit:10;}
	.st24{fill:#000C60;}
	.st25{fill:none;stroke:#FFFFFF;stroke-miterlimit:10;}
</style>
<rect x="-8.19" y="-2.93" class="st0" width="295.95" height="301.71"/>
<g>
	<polygon class="st1" points="274.12,-518.88 274.12,-518.88 274.12,-518.88 274.12,-518.88 	"/>
	<line class="st1" x1="274.12" y1="-518.88" x2="274.12" y2="-518.88"/>
	<line class="st1" x1="274.12" y1="-518.88" x2="274.12" y2="-518.88"/>
	<line class="st1" x1="274.12" y1="-518.88" x2="274.12" y2="-518.88"/>
	<line class="st1" x1="274.12" y1="-518.88" x2="274.12" y2="-518.88"/>
	<line class="st1" x1="274.12" y1="-518.88" x2="274.12" y2="-518.88"/>
	<line class="st1" x1="274.12" y1="-518.88" x2="274.12" y2="-518.88"/>
	<line class="st1" x1="274.12" y1="-518.88" x2="274.12" y2="-518.88"/>
	<line class="st1" x1="274.12" y1="-518.88" x2="274.12" y2="-518.88"/>
	<line class="st1" x1="274.12" y1="-518.88" x2="274.12" y2="-518.88"/>
	<line class="st1" x1="274.12" y1="-518.88" x2="274.12" y2="-518.88"/>
	<line class="st1" x1="274.12" y1="-518.88" x2="274.12" y2="-518.88"/>
	<line class="st1" x1="274.12" y1="-518.88" x2="274.12" y2="-518.88"/>
	<line class="st1" x1="274.12" y1="-518.88" x2="274.12" y2="-518.88"/>
	<line class="st1" x1="274.12" y1="-518.88" x2="274.12" y2="-518.88"/>
	<line class="st1" x1="274.12" y1="-518.88" x2="274.12" y2="-518.88"/>
	<line class="st1" x1="274.12" y1="-518.88" x2="274.12" y2="-518.88"/>
	<line class="st1" x1="274.12" y1="-518.88" x2="274.12" y2="-518.88"/>
	<line class="st1" x1="274.12" y1="-518.88" x2="274.12" y2="-518.88"/>
	<line class="st1" x1="274.12" y1="-518.88" x2="274.12" y2="-518.88"/>
	<line class="st1" x1="274.12" y1="-518.88" x2="274.12" y2="-518.88"/>
	<line class="st1" x1="274.12" y1="-518.88" x2="274.12" y2="-518.88"/>
	<line class="st1" x1="274.12" y1="-518.88" x2="274.12" y2="-518.88"/>
	<line class="st1" x1="274.12" y1="-518.88" x2="274.12" y2="-518.88"/>
	<line class="st1" x1="274.12" y1="-518.88" x2="274.12" y2="-518.88"/>
</g>
<g>
	<polygon class="st2" points="343.74,144.5 343.74,144.5 343.74,144.5 343.74,144.5 	"/>
	<line class="st2" x1="343.74" y1="144.5" x2="343.74" y2="144.5"/>
	<line class="st2" x1="343.74" y1="144.5" x2="343.74" y2="144.5"/>
	<line class="st2" x1="343.74" y1="144.5" x2="343.74" y2="144.5"/>
	<line class="st2" x1="343.74" y1="144.5" x2="343.74" y2="144.5"/>
	<line class="st2" x1="343.74" y1="144.5" x2="343.74" y2="144.5"/>
	<line class="st2" x1="343.74" y1="144.5" x2="343.74" y2="144.5"/>
	<line class="st2" x1="343.74" y1="144.5" x2="343.74" y2="144.5"/>
	<line class="st2" x1="343.74" y1="144.5" x2="343.74" y2="144.5"/>
	<line class="st2" x1="343.74" y1="144.5" x2="343.74" y2="144.5"/>
	<line class="st2" x1="343.74" y1="144.5" x2="343.74" y2="144.5"/>
	<line class="st2" x1="343.74" y1="144.5" x2="343.74" y2="144.5"/>
	<line class="st2" x1="343.74" y1="144.5" x2="343.74" y2="144.5"/>
	<line class="st2" x1="343.74" y1="144.5" x2="343.74" y2="144.5"/>
	<line class="st2" x1="343.74" y1="144.5" x2="343.74" y2="144.5"/>
	<line class="st2" x1="343.74" y1="144.5" x2="343.74" y2="144.5"/>
	<line class="st2" x1="343.74" y1="144.5" x2="343.74" y2="144.5"/>
</g>
<g>
	<rect x="80.2" y="-553.08" class="st2" width="360" height="360"/>
	<line class="st2" x1="80.2" y1="-525.39" x2="440.2" y2="-525.39"/>
	<line class="st2" x1="80.2" y1="-497.69" x2="440.2" y2="-497.69"/>
	<line class="st2" x1="80.2" y1="-470" x2="440.2" y2="-470"/>
	<line class="st2" x1="80.2" y1="-442.31" x2="440.2" y2="-442.31"/>
	<line class="st2" x1="80.2" y1="-414.62" x2="440.2" y2="-414.62"/>
	<line class="st2" x1="80.2" y1="-386.92" x2="440.2" y2="-386.92"/>
	<line class="st2" x1="80.2" y1="-359.23" x2="440.2" y2="-359.23"/>
	<line class="st2" x1="80.2" y1="-331.54" x2="440.2" y2="-331.54"/>
	<line class="st2" x1="80.2" y1="-303.85" x2="440.2" y2="-303.85"/>
	<line class="st2" x1="80.2" y1="-276.16" x2="440.2" y2="-276.16"/>
	<line class="st2" x1="80.2" y1="-248.46" x2="440.2" y2="-248.46"/>
	<line class="st2" x1="80.2" y1="-220.77" x2="440.2" y2="-220.77"/>
	<line class="st2" x1="412.51" y1="-193.08" x2="412.51" y2="-553.08"/>
	<line class="st2" x1="384.82" y1="-193.08" x2="384.82" y2="-553.08"/>
	<line class="st2" x1="357.12" y1="-193.08" x2="357.12" y2="-553.08"/>
	<line class="st2" x1="329.43" y1="-193.08" x2="329.43" y2="-553.08"/>
	<line class="st2" x1="301.74" y1="-193.08" x2="301.74" y2="-553.08"/>
	<line class="st2" x1="274.05" y1="-193.08" x2="274.05" y2="-553.08"/>
	<line class="st2" x1="246.36" y1="-193.08" x2="246.36" y2="-553.08"/>
	<line class="st2" x1="218.66" y1="-193.08" x2="218.66" y2="-553.08"/>
	<line class="st2" x1="190.97" y1="-193.08" x2="190.97" y2="-553.08"/>
	<line class="st2" x1="163.28" y1="-193.08" x2="163.28" y2="-553.08"/>
	<line class="st2" x1="135.59" y1="-193.08" x2="135.59" y2="-553.08"/>
	<line class="st2" x1="107.89" y1="-193.08" x2="107.89" y2="-553.08"/>
</g>
<g>
	<polygon class="st3" points="379.96,-289.84 379.96,-289.84 379.96,-289.84 379.96,-289.84 	"/>
	<line class="st3" x1="379.96" y1="-289.84" x2="379.96" y2="-289.84"/>
	<line class="st3" x1="379.96" y1="-289.84" x2="379.96" y2="-289.84"/>
	<line class="st3" x1="379.96" y1="-289.84" x2="379.96" y2="-289.84"/>
	<line class="st3" x1="379.96" y1="-289.84" x2="379.96" y2="-289.84"/>
	<line class="st3" x1="379.96" y1="-289.84" x2="379.96" y2="-289.84"/>
	<line class="st3" x1="379.96" y1="-289.84" x2="379.96" y2="-289.84"/>
	<line class="st3" x1="379.96" y1="-289.84" x2="379.96" y2="-289.84"/>
	<line class="st3" x1="379.96" y1="-289.84" x2="379.96" y2="-289.84"/>
	<line class="st3" x1="379.96" y1="-289.84" x2="379.96" y2="-289.84"/>
	<line class="st3" x1="379.96" y1="-289.84" x2="379.96" y2="-289.84"/>
	<line class="st3" x1="379.96" y1="-289.84" x2="379.96" y2="-289.84"/>
	<line class="st3" x1="379.96" y1="-289.84" x2="379.96" y2="-289.84"/>
	<line class="st3" x1="379.96" y1="-289.84" x2="379.96" y2="-289.84"/>
	<line class="st3" x1="379.96" y1="-289.84" x2="379.96" y2="-289.84"/>
	<line class="st3" x1="379.96" y1="-289.84" x2="379.96" y2="-289.84"/>
	<line class="st3" x1="379.96" y1="-289.84" x2="379.96" y2="-289.84"/>
	<line class="st3" x1="379.96" y1="-289.84" x2="379.96" y2="-289.84"/>
	<line class="st3" x1="379.96" y1="-289.84" x2="379.96" y2="-289.84"/>
	<line class="st3" x1="379.96" y1="-289.84" x2="379.96" y2="-289.84"/>
	<line class="st3" x1="379.96" y1="-289.84" x2="379.96" y2="-289.84"/>
	<line class="st3" x1="379.96" y1="-289.84" x2="379.96" y2="-289.84"/>
	<line class="st3" x1="379.96" y1="-289.84" x2="379.96" y2="-289.84"/>
	<line class="st3" x1="379.96" y1="-289.84" x2="379.96" y2="-289.84"/>
	<line class="st3" x1="379.96" y1="-289.84" x2="379.96" y2="-289.84"/>
</g>
<g>
	<polygon class="st4" points="56.18,57.6 141.32,36.89 226.57,57.63 141.46,64.37 	"/>
	<line class="st4" x1="135.62" y1="63.9" x2="222.16" y2="56.55"/>
	<line class="st4" x1="129.35" y1="63.4" x2="217.25" y2="55.36"/>
	<line class="st4" x1="122.6" y1="62.87" x2="211.75" y2="54.02"/>
	<line class="st4" x1="115.34" y1="62.29" x2="205.55" y2="52.51"/>
	<line class="st4" x1="107.48" y1="61.67" x2="198.5" y2="50.8"/>
	<line class="st4" x1="98.96" y1="60.99" x2="190.41" y2="48.83"/>
	<line class="st4" x1="89.68" y1="60.26" x2="181.05" y2="46.55"/>
	<line class="st4" x1="79.54" y1="59.46" x2="170.08" y2="43.89"/>
	<line class="st4" x1="68.43" y1="58.57" x2="157.05" y2="40.72"/>
	<line class="st4" x1="125.63" y1="40.71" x2="214.36" y2="58.59"/>
	<line class="st4" x1="112.62" y1="43.87" x2="203.28" y2="59.47"/>
	<line class="st4" x1="101.67" y1="46.54" x2="193.17" y2="60.27"/>
	<line class="st4" x1="92.32" y1="48.81" x2="183.91" y2="61"/>
	<line class="st4" x1="84.24" y1="50.78" x2="175.4" y2="61.68"/>
	<line class="st4" x1="77.2" y1="52.49" x2="167.56" y2="62.3"/>
	<line class="st4" x1="71" y1="54" x2="160.3" y2="62.87"/>
	<line class="st4" x1="65.5" y1="55.33" x2="153.57" y2="63.41"/>
	<line class="st4" x1="60.59" y1="56.53" x2="147.3" y2="63.9"/>
</g>
<g>
	<rect x="1583.81" y="-2538.02" class="st5" width="11.89" height="11.89"/>
	<line class="st5" x1="1595.7" y1="-2532.08" x2="1583.81" y2="-2532.08"/>
	<line class="st5" x1="1585" y1="-2538.02" x2="1585" y2="-2526.13"/>
	<line class="st5" x1="1586.18" y1="-2538.02" x2="1586.18" y2="-2526.13"/>
	<line class="st5" x1="1587.37" y1="-2538.02" x2="1587.37" y2="-2526.13"/>
	<line class="st5" x1="1588.56" y1="-2538.02" x2="1588.56" y2="-2526.13"/>
	<line class="st5" x1="1589.75" y1="-2538.02" x2="1589.75" y2="-2526.13"/>
	<line class="st5" x1="1590.94" y1="-2538.02" x2="1590.94" y2="-2526.13"/>
	<line class="st5" x1="1592.13" y1="-2538.02" x2="1592.13" y2="-2526.13"/>
	<line class="st5" x1="1593.32" y1="-2538.02" x2="1593.32" y2="-2526.13"/>
	<line class="st5" x1="1594.51" y1="-2538.02" x2="1594.51" y2="-2526.13"/>
</g>
<g>
	<polygon class="st5" points="1754.23,-2355.71 1750.26,-2355.71 1750.26,-2355.71 1754.23,-2355.71 	"/>
	<line class="st5" x1="1754.23" y1="-2355.71" x2="1750.26" y2="-2355.71"/>
	<line class="st5" x1="1750.66" y1="-2355.71" x2="1750.66" y2="-2355.71"/>
	<line class="st5" x1="1751.06" y1="-2355.71" x2="1751.06" y2="-2355.71"/>
	<line class="st5" x1="1751.45" y1="-2355.71" x2="1751.45" y2="-2355.71"/>
	<line class="st5" x1="1751.85" y1="-2355.71" x2="1751.85" y2="-2355.71"/>
	<line class="st5" x1="1752.25" y1="-2355.71" x2="1752.25" y2="-2355.71"/>
	<line class="st5" x1="1752.64" y1="-2355.71" x2="1752.64" y2="-2355.71"/>
	<line class="st5" x1="1753.04" y1="-2355.71" x2="1753.04" y2="-2355.71"/>
	<line class="st5" x1="1753.44" y1="-2355.71" x2="1753.44" y2="-2355.71"/>
	<line class="st5" x1="1753.83" y1="-2355.71" x2="1753.83" y2="-2355.71"/>
</g>
<g>
	<rect x="-1133.02" y="-332.34" class="st6" width="1495.37" height="166.15"/>
	<line class="st6" x1="212.82" y1="-166.19" x2="212.82" y2="-332.34"/>
	<line class="st6" x1="63.28" y1="-166.19" x2="63.28" y2="-332.34"/>
	<line class="st6" x1="-86.26" y1="-166.19" x2="-86.26" y2="-332.34"/>
	<line class="st6" x1="-235.8" y1="-166.19" x2="-235.8" y2="-332.34"/>
	<line class="st6" x1="-385.33" y1="-166.19" x2="-385.33" y2="-332.34"/>
	<line class="st6" x1="-534.87" y1="-166.19" x2="-534.87" y2="-332.34"/>
	<line class="st6" x1="-684.41" y1="-166.19" x2="-684.41" y2="-332.34"/>
	<line class="st6" x1="-833.95" y1="-166.19" x2="-833.95" y2="-332.34"/>
	<line class="st6" x1="-983.48" y1="-166.19" x2="-983.48" y2="-332.34"/>
</g>
<g>
	<polygon class="st3" points="-2577.65,-1416.41 -2581.61,-1416.41 -2581.61,-1416.41 -2577.65,-1416.41 	"/>
	<line class="st3" x1="-2577.65" y1="-1416.41" x2="-2581.61" y2="-1416.41"/>
	<line class="st3" x1="-2577.65" y1="-1416.41" x2="-2581.61" y2="-1416.41"/>
	<line class="st3" x1="-2577.65" y1="-1416.41" x2="-2581.61" y2="-1416.41"/>
	<line class="st3" x1="-2577.65" y1="-1416.41" x2="-2581.61" y2="-1416.41"/>
	<line class="st3" x1="-2577.65" y1="-1416.41" x2="-2581.61" y2="-1416.41"/>
	<line class="st3" x1="-2577.65" y1="-1416.41" x2="-2581.61" y2="-1416.41"/>
	<line class="st3" x1="-2577.65" y1="-1416.41" x2="-2581.61" y2="-1416.41"/>
	<line class="st3" x1="-2577.65" y1="-1416.41" x2="-2581.61" y2="-1416.41"/>
	<line class="st3" x1="-2577.65" y1="-1416.41" x2="-2581.61" y2="-1416.41"/>
</g>
<g>
	<rect y="-2720.33" class="st7" width="32.84" height="21.14"/>
	<line class="st7" x1="0" y1="-2718.22" x2="32.84" y2="-2718.22"/>
	<line class="st7" x1="0" y1="-2716.1" x2="32.84" y2="-2716.1"/>
	<line class="st7" x1="0" y1="-2713.99" x2="32.84" y2="-2713.99"/>
	<line class="st7" x1="0" y1="-2711.88" x2="32.84" y2="-2711.88"/>
	<line class="st7" x1="0" y1="-2709.76" x2="32.84" y2="-2709.76"/>
	<line class="st7" x1="0" y1="-2707.65" x2="32.84" y2="-2707.65"/>
	<line class="st7" x1="0" y1="-2705.54" x2="32.84" y2="-2705.54"/>
	<line class="st7" x1="0" y1="-2703.42" x2="32.84" y2="-2703.42"/>
	<line class="st7" x1="0" y1="-2701.31" x2="32.84" y2="-2701.31"/>
</g>
<g>
	<rect x="238.27" y="-2863.01" class="st7" width="965.39" height="412.18"/>
	<line class="st7" x1="238.27" y1="-2492.05" x2="1203.65" y2="-2492.05"/>
	<line class="st7" x1="238.27" y1="-2533.26" x2="1203.65" y2="-2533.26"/>
	<line class="st7" x1="238.27" y1="-2574.48" x2="1203.65" y2="-2574.48"/>
	<line class="st7" x1="238.27" y1="-2615.7" x2="1203.65" y2="-2615.7"/>
	<line class="st7" x1="238.27" y1="-2656.92" x2="1203.65" y2="-2656.92"/>
	<line class="st7" x1="238.27" y1="-2698.14" x2="1203.65" y2="-2698.14"/>
	<line class="st7" x1="238.27" y1="-2739.36" x2="1203.65" y2="-2739.36"/>
	<line class="st7" x1="238.27" y1="-2780.57" x2="1203.65" y2="-2780.57"/>
	<line class="st7" x1="238.27" y1="-2821.79" x2="1203.65" y2="-2821.79"/>
</g>
<g>
	<rect x="-1061.51" y="-3687.38" class="st7" width="4629.61" height="570.71"/>
	<line class="st7" x1="3105.14" y1="-3687.38" x2="3105.14" y2="-3116.66"/>
	<line class="st7" x1="2642.17" y1="-3687.38" x2="2642.17" y2="-3116.66"/>
	<line class="st7" x1="2179.21" y1="-3687.38" x2="2179.21" y2="-3116.66"/>
	<line class="st7" x1="1716.25" y1="-3687.38" x2="1716.25" y2="-3116.66"/>
	<line class="st7" x1="1253.29" y1="-3687.38" x2="1253.29" y2="-3116.66"/>
	<line class="st7" x1="790.33" y1="-3687.38" x2="790.33" y2="-3116.66"/>
	<line class="st7" x1="327.37" y1="-3687.38" x2="327.37" y2="-3116.66"/>
	<line class="st7" x1="-135.59" y1="-3687.38" x2="-135.59" y2="-3116.66"/>
	<line class="st7" x1="-598.55" y1="-3687.38" x2="-598.55" y2="-3116.66"/>
</g>
<g>
	<rect x="-5396.19" y="-6090.39" class="st7" width="0" height="15.85"/>
	<line class="st7" x1="-5396.19" y1="-6074.54" x2="-5396.19" y2="-6090.39"/>
	<line class="st7" x1="-5396.19" y1="-6074.54" x2="-5396.19" y2="-6090.39"/>
	<line class="st7" x1="-5396.19" y1="-6074.54" x2="-5396.19" y2="-6090.39"/>
	<line class="st7" x1="-5396.19" y1="-6074.54" x2="-5396.19" y2="-6090.39"/>
	<line class="st7" x1="-5396.19" y1="-6074.54" x2="-5396.19" y2="-6090.39"/>
	<line class="st7" x1="-5396.19" y1="-6074.54" x2="-5396.19" y2="-6090.39"/>
	<line class="st7" x1="-5396.19" y1="-6074.54" x2="-5396.19" y2="-6090.39"/>
	<line class="st7" x1="-5396.19" y1="-6074.54" x2="-5396.19" y2="-6090.39"/>
	<line class="st7" x1="-5396.19" y1="-6074.54" x2="-5396.19" y2="-6090.39"/>
</g>
<g>
	<polygon class="st5" points="-857.58,-1269.77 -857.58,-1269.77 -857.58,-1269.77 -857.58,-1269.77 	"/>
	<line class="st5" x1="-857.58" y1="-1269.77" x2="-857.58" y2="-1269.77"/>
	<line class="st5" x1="-857.58" y1="-1269.77" x2="-857.58" y2="-1269.77"/>
	<line class="st5" x1="-857.58" y1="-1269.77" x2="-857.58" y2="-1269.77"/>
	<line class="st5" x1="-857.58" y1="-1269.77" x2="-857.58" y2="-1269.77"/>
	<line class="st5" x1="-857.58" y1="-1269.77" x2="-857.58" y2="-1269.77"/>
	<line class="st5" x1="-857.58" y1="-1269.77" x2="-857.58" y2="-1269.77"/>
	<line class="st5" x1="-857.58" y1="-1269.77" x2="-857.58" y2="-1269.77"/>
	<line class="st5" x1="-857.58" y1="-1269.77" x2="-857.58" y2="-1269.77"/>
	<line class="st5" x1="-857.58" y1="-1269.77" x2="-857.58" y2="-1269.77"/>
</g>
<g>
	<polygon class="st8" points="55.26,57.47 141.38,36.61 141.38,16.9 55.26,47.69 	"/>
	<line class="st8" x1="55.26" y1="52.58" x2="141.38" y2="26.75"/>
	<line class="st8" x1="125.61" y1="40.42" x2="125.61" y2="22.54"/>
	<line class="st8" x1="112.51" y1="43.6" x2="112.51" y2="27.22"/>
	<line class="st8" x1="101.45" y1="46.28" x2="101.45" y2="31.17"/>
	<line class="st8" x1="91.99" y1="48.57" x2="91.99" y2="34.56"/>
	<line class="st8" x1="83.81" y1="50.55" x2="83.81" y2="37.49"/>
	<line class="st8" x1="76.66" y1="52.28" x2="76.66" y2="40.04"/>
	<line class="st8" x1="70.36" y1="53.81" x2="70.36" y2="42.3"/>
	<line class="st8" x1="64.76" y1="55.17" x2="64.76" y2="44.3"/>
	<line class="st8" x1="59.76" y1="56.38" x2="59.76" y2="46.09"/>
</g>
<polygon class="st9" points="104.75,126.61 96.68,121.38 96.68,108.25 104.75,112.75 "/>
<polygon class="st9" points="145.41,131.81 137.34,126.57 137.34,113.45 145.41,117.95 "/>
<polygon class="st9" points="136.02,101.03 127.96,95.8 127.96,82.68 136.02,87.18 "/>
<polygon class="st10" points="178.28,75.68 166.19,70.44 166.19,57.32 178.28,61.82 "/>
<polygon class="st9" points="187.94,84.86 179.88,79.62 179.88,66.5 187.94,71 "/>
<polygon class="st9" points="171.12,176.17 163.06,170.94 163.06,157.82 171.12,162.31 "/>
<polygon class="st11" points="118.78,102.62 108.9,100.36 108.9,92.75 118.78,94.71 "/>
<polygon class="st12" points="113.31,145.85 108.82,144.31 108.82,131.04 113.31,132.41 "/>
<polygon class="st12" points="156.27,165.22 151.78,163.69 151.78,150.41 156.27,151.79 "/>
<polygon class="st12" points="172.24,102.56 167.75,101.03 167.75,87.75 172.24,89.13 "/>
<polygon class="st12" points="195.45,120.83 190.95,119.29 190.95,106.01 195.45,107.39 "/>
<polygon class="st12" points="211.73,150.81 207.23,149.27 207.23,135.99 211.73,137.37 "/>
<polygon class="st12" points="136.34,156.61 118.78,150.62 118.78,144.21 136.34,149.92 "/>
<polygon class="st13" points="129.53,188.33 114.01,183.03 114.01,177.37 129.53,182.42 "/>
<polygon class="st12" points="91.4,164.02 73.83,158.02 73.83,151.62 91.4,157.33 "/>
<polygon class="st12" points="109.49,87.22 91.93,81.23 91.93,74.82 109.49,80.54 "/>
<polygon class="st14" points="125.22,67.87 107.66,61.88 107.66,55.47 125.22,61.18 "/>
<polygon class="st12" points="189.41,149.6 171.85,143.61 171.85,137.2 189.41,142.91 "/>
<g>
	<rect x="-2297.83" y="-2072.14" class="st15" width="3057.23" height="637.86"/>
	<line class="st15" x1="-2297.83" y1="-1753.21" x2="759.4" y2="-1753.21"/>
	<line class="st15" x1="453.68" y1="-2072.14" x2="453.68" y2="-1434.28"/>
	<line class="st15" x1="147.96" y1="-2072.14" x2="147.96" y2="-1434.28"/>
	<line class="st15" x1="-157.77" y1="-2072.14" x2="-157.77" y2="-1434.28"/>
	<line class="st15" x1="-463.49" y1="-2072.14" x2="-463.49" y2="-1434.28"/>
	<line class="st15" x1="-769.21" y1="-2072.14" x2="-769.21" y2="-1434.28"/>
	<line class="st15" x1="-1074.94" y1="-2072.14" x2="-1074.94" y2="-1434.28"/>
	<line class="st15" x1="-1380.66" y1="-2072.14" x2="-1380.66" y2="-1434.28"/>
	<line class="st15" x1="-1686.38" y1="-2072.14" x2="-1686.38" y2="-1434.28"/>
	<line class="st15" x1="-1992.11" y1="-2072.14" x2="-1992.11" y2="-1434.28"/>
</g>
<g>
	<rect x="422.11" y="-331.54" class="st16" width="1478.14" height="164.55"/>
	<line class="st16" x1="422.11" y1="-249.26" x2="1900.25" y2="-249.26"/>
	<line class="st16" x1="1752.43" y1="-331.54" x2="1752.43" y2="-166.99"/>
	<line class="st16" x1="1604.62" y1="-331.54" x2="1604.62" y2="-166.99"/>
	<line class="st16" x1="1456.81" y1="-331.54" x2="1456.81" y2="-166.99"/>
	<line class="st16" x1="1308.99" y1="-331.54" x2="1308.99" y2="-166.99"/>
	<line class="st16" x1="1161.18" y1="-331.54" x2="1161.18" y2="-166.99"/>
	<line class="st16" x1="1013.36" y1="-331.54" x2="1013.36" y2="-166.99"/>
	<line class="st16" x1="865.55" y1="-331.54" x2="865.55" y2="-166.99"/>
	<line class="st16" x1="717.73" y1="-331.54" x2="717.73" y2="-166.99"/>
	<line class="st16" x1="569.92" y1="-331.54" x2="569.92" y2="-166.99"/>
</g>
<g>
	<polygon class="st8" points="228.08,57.47 141.96,36.61 141.96,16.9 228.08,47.69 	"/>
	<line class="st8" x1="228.08" y1="52.58" x2="141.96" y2="26.75"/>
	<line class="st8" x1="157.73" y1="40.42" x2="157.73" y2="22.54"/>
	<line class="st8" x1="170.83" y1="43.6" x2="170.83" y2="27.22"/>
	<line class="st8" x1="181.88" y1="46.28" x2="181.88" y2="31.17"/>
	<line class="st8" x1="191.34" y1="48.57" x2="191.34" y2="34.56"/>
	<line class="st8" x1="199.53" y1="50.55" x2="199.53" y2="37.49"/>
	<line class="st8" x1="206.68" y1="52.28" x2="206.68" y2="40.04"/>
	<line class="st8" x1="212.98" y1="53.81" x2="212.98" y2="42.3"/>
	<line class="st8" x1="218.58" y1="55.17" x2="218.58" y2="44.3"/>
	<line class="st8" x1="223.58" y1="56.38" x2="223.58" y2="46.09"/>
</g>
<g>
	<g>
		<path class="st17" d="M158.08,96.98c0,2.82,0,5.64,0,8.46c0,1.15,1.78,1.15,1.78,0c0-2.82,0-5.64,0-8.46
			C159.86,95.83,158.08,95.83,158.08,96.98L158.08,96.98z"/>
	</g>
</g>
<g>
	<g>
		<path class="st17" d="M131.1,70.59c0,2.82,0,5.64,0,8.46c0,1.15,1.78,1.15,1.78,0c0-2.82,0-5.64,0-8.46
			C132.88,69.45,131.1,69.45,131.1,70.59L131.1,70.59z"/>
	</g>
</g>
<g>
	<g>
		<path class="st17" d="M111.62,115.64c0,3.45,0,6.9,0,10.34c0,1.15,1.78,1.15,1.78,0c0-3.45,0-6.9,0-10.34
			C113.4,114.5,111.62,114.5,111.62,115.64L111.62,115.64z"/>
	</g>
</g>
<g>
	<g>
		<path class="st17" d="M121.71,123.31c0,3.45,0,6.9,0,10.34c0,1.15,1.78,1.15,1.78,0c0-3.45,0-6.9,0-10.34
			C123.49,122.16,121.71,122.16,121.71,123.31L121.71,123.31z"/>
	</g>
</g>
<g>
	<g>
		<path class="st17" d="M128.31,130.57c0,3.45,0,6.9,0,10.34c0,1.15,1.78,1.15,1.78,0c0-3.45,0-6.9,0-10.34
			C130.09,129.42,128.31,129.42,128.31,130.57L128.31,130.57z"/>
	</g>
</g>
<g>
	<g>
		<path class="st17" d="M175.93,118.61c0,2.66,0,5.33,0,7.99c0,1.18,1.83,1.18,1.83,0c0-2.66,0-5.33,0-7.99
			C177.76,117.43,175.93,117.42,175.93,118.61L175.93,118.61z"/>
	</g>
</g>
<g>
	<g>
		<path class="st17" d="M192.25,91.16c0,2.66,0,5.33,0,7.99c0,1.18,1.83,1.18,1.83,0c0-2.66,0-5.33,0-7.99
			C194.08,89.99,192.25,89.98,192.25,91.16L192.25,91.16z"/>
	</g>
</g>
<g>
	<g>
		<path class="st17" d="M152.65,120.82c0,4.97,0,9.95,0,14.92c0,1.18,1.83,1.18,1.83,0c0-4.97,0-9.95,0-14.92
			C154.49,119.64,152.65,119.63,152.65,120.82L152.65,120.82z"/>
	</g>
</g>
<g>
	<g>
		<path class="st17" d="M140.46,95.16c0,4.97,0,9.95,0,14.92c0,1.18,1.83,1.18,1.83,0c0-4.97,0-9.95,0-14.92
			C142.29,93.98,140.46,93.98,140.46,95.16L140.46,95.16z"/>
	</g>
</g>
<g>
	<g>
		<path class="st17" d="M82.92,128.48c0,4.39,0,8.78,0,13.17c0,1.15,1.78,1.15,1.78,0c0-4.39,0-8.78,0-13.17
			C84.7,127.34,82.92,127.33,82.92,128.48L82.92,128.48z"/>
	</g>
</g>
<g>
	<g>
		<path class="st17" d="M164.31,142.22c0,3.84,0,7.68,0,11.52c0,1.34,2.08,1.34,2.08,0c0-3.84,0-7.68,0-11.52
			C166.39,140.88,164.31,140.88,164.31,142.22L164.31,142.22z"/>
	</g>
</g>
<g>
	<g>
		<path class="st17" d="M206.78,115.42c0,3.6,0,7.21,0,10.81c0,1.15,1.78,1.15,1.78,0c0-3.6,0-7.21,0-10.81
			C208.56,114.27,206.78,114.27,206.78,115.42L206.78,115.42z"/>
	</g>
</g>
<g>
	<g>
		<path class="st17" d="M115.55,75.62c0,3.6,0,7.21,0,10.81c0,1.15,1.78,1.15,1.78,0c0-3.6,0-7.21,0-10.81
			C117.33,74.47,115.55,74.47,115.55,75.62L115.55,75.62z"/>
	</g>
</g>
<g>
	<g>
		<path class="st17" d="M120.7,162.06c0,3.29,0,6.58,0,9.87c0,1.15,1.78,1.15,1.78,0c0-3.29,0-6.58,0-9.87
			C122.48,160.91,120.7,160.91,120.7,162.06L120.7,162.06z"/>
	</g>
</g>
<g>
	<polygon class="st18" points="-136.26,361.79 -136.92,360.65 -136.92,361.13 -136.26,362.27 	"/>
	<line class="st18" x1="-136.26" y1="362.03" x2="-136.92" y2="360.89"/>
	<line class="st18" x1="-136.86" y1="360.76" x2="-136.86" y2="361.24"/>
	<line class="st18" x1="-136.79" y1="360.88" x2="-136.79" y2="361.36"/>
	<line class="st18" x1="-136.73" y1="360.99" x2="-136.73" y2="361.47"/>
	<line class="st18" x1="-136.66" y1="361.1" x2="-136.66" y2="361.59"/>
	<line class="st18" x1="-136.59" y1="361.22" x2="-136.59" y2="361.7"/>
	<line class="st18" x1="-136.53" y1="361.33" x2="-136.53" y2="361.81"/>
	<line class="st18" x1="-136.46" y1="361.45" x2="-136.46" y2="361.93"/>
	<line class="st18" x1="-136.4" y1="361.56" x2="-136.4" y2="362.04"/>
	<line class="st18" x1="-136.33" y1="361.68" x2="-136.33" y2="362.16"/>
</g>
<g class="st19">
	<polygon class="st20" points="138.58,225.73 433.04,257.02 163.16,383.93 -146.17,257.02 	"/>
	<line class="st20" x1="-86.09" y1="250.42" x2="243.16" y2="346.31"/>
	<line class="st20" x1="-34.86" y1="244.79" x2="298.84" y2="320.12"/>
	<line class="st20" x1="9.34" y1="239.93" x2="339.84" y2="300.85"/>
	<line class="st20" x1="47.87" y1="235.69" x2="371.29" y2="286.06"/>
	<line class="st20" x1="81.75" y1="231.97" x2="396.17" y2="274.36"/>
	<line class="st20" x1="111.78" y1="228.67" x2="416.35" y2="264.87"/>
	<line class="st20" x1="370.92" y1="250.42" x2="71.47" y2="346.31"/>
	<line class="st20" x1="317.94" y1="244.79" x2="7.65" y2="320.12"/>
	<line class="st20" x1="272.23" y1="239.93" x2="-39.35" y2="300.85"/>
	<line class="st20" x1="232.38" y1="235.69" x2="-75.39" y2="286.06"/>
	<line class="st20" x1="197.34" y1="231.97" x2="-103.9" y2="274.36"/>
	<line class="st20" x1="166.29" y1="228.67" x2="-127.03" y2="264.87"/>
</g>
<polygon class="st12" points="111.78,172.25 107.28,170.72 107.28,157.44 111.78,158.82 "/>
<rect x="22.94" y="350.33" class="st17" width="360.68" height="114.03"/>
<rect x="289.04" y="-2.93" class="st17" width="174.58" height="335.56"/>
<rect x="-164.29" y="-42.14" class="st17" width="164.29" height="347.78"/>
<polygon class="st21" points="102.52,201.94 142.55,199.09 185.68,202.9 186.29,256.62 145.74,264.52 102.52,256.47 "/>
<polygon class="st22" points="145.58,206.28 185.68,202.9 186.08,255.88 146.23,263.81 "/>
<rect x="-19.7" y="292.69" class="st17" width="326.29" height="57.65"/>
<line class="st23" x1="145.58" y1="264.52" x2="145.58" y2="205.35"/>
<polygon class="st24" points="142.55,199.79 142.55,206 106.82,202.19 "/>
<polyline class="st25" points="102.52,201.94 145.41,205.35 186.73,203.18 "/>
</svg>
